<svg width="127" height="127" viewBox="0 0 127 127" fill="none" xmlns="http://www.w3.org/2000/svg">
<g clip-path="url(#clip0_580_2840)">
<path d="M28.2033 36.3414C37.6199 31.064 48.7472 29.7434 59.1374 32.6702C69.5276 35.597 78.3296 42.5314 83.6071 51.948L93.8009 70.1367L96.6836 59.9029C96.88 59.1562 97.2231 58.4561 97.693 57.8435C98.1628 57.2308 98.75 56.7179 99.4202 56.3346C100.09 55.9513 100.83 55.7053 101.596 55.611C102.363 55.5167 103.14 55.5759 103.883 55.7853C104.626 55.9946 105.32 56.3498 105.925 56.8302C106.529 57.3107 107.032 57.9066 107.403 58.5834C107.775 59.2601 108.008 60.0041 108.089 60.7719C108.17 61.5397 108.097 62.316 107.875 63.0554L101.187 86.7999C100.768 88.2838 99.7779 89.5409 98.4329 90.2947C97.088 91.0485 95.4987 91.2372 94.0146 90.8194L70.2701 84.1309C69.5235 83.9345 68.8234 83.5914 68.2108 83.1215C67.5981 82.6517 67.0852 82.0645 66.7019 81.3943C66.3186 80.7241 66.0726 79.9843 65.9783 79.218C65.8839 78.4517 65.9432 77.6743 66.1525 76.9312C66.3619 76.1881 66.7171 75.494 67.1975 74.8897C67.6779 74.2853 68.2739 73.7826 68.9507 73.411C69.6274 73.0394 70.3714 72.8063 71.1392 72.7253C71.907 72.6444 72.6833 72.7171 73.4227 72.9393L83.6565 75.8221L73.4628 57.6333C69.6932 50.9072 63.406 45.954 55.9844 43.8634C48.5628 41.7729 40.6147 42.7162 33.8886 46.4858L23.7443 52.1711C22.3991 52.925 20.8095 53.1136 19.3251 52.6955C17.8408 52.2774 16.5834 51.2868 15.8295 49.9416C15.0756 48.5963 14.8869 47.0067 15.305 45.5224C15.7231 44.0381 16.7138 42.7807 18.059 42.0267L28.2033 36.3414Z" fill="#04413A"/>
</g>
<defs>
<clipPath id="clip0_580_2840">
<rect width="93.0308" height="93.0308" fill="white" transform="translate(0 45.4826) rotate(-29.2682)"/>
</clipPath>
</defs>
</svg>
