<svg preserveAspectRatio="none" overflow="visible" style="display: block;" width="22" height="22" viewBox="0 0 22 22" fill="none" xmlns="http://www.w3.org/2000/svg">
<g id="Gauge">
<path id="Vector" d="M11 1.83333C13.4312 1.83333 15.7627 2.7991 17.4818 4.51819C19.2009 6.23727 20.1667 8.56885 20.1667 11C20.1667 13.4312 19.2009 15.7627 17.4818 17.4818C15.7627 19.2009 13.4312 20.1667 11 20.1667C8.56885 20.1667 6.23727 19.2009 4.51819 17.4818C2.7991 15.7627 1.83333 13.4312 1.83333 11C1.83333 8.56885 2.7991 6.23727 4.51819 4.51819C6.23727 2.7991 8.56885 1.83333 11 1.83333Z" stroke="#025B50" stroke-width="1.65"/>
<path id="Vector_2" d="M11 11L14.6667 7.33333" stroke="#025B50" stroke-width="1.83333" stroke-linecap="round"/>
<path id="Vector_3" d="M11 12.8333C12.0125 12.8333 12.8333 12.0125 12.8333 11C12.8333 9.98748 12.0125 9.16667 11 9.16667C9.98748 9.16667 9.16667 9.98748 9.16667 11C9.16667 12.0125 9.98748 12.8333 11 12.8333Z" fill="#025B50"/>
</g>
</svg>
