<svg preserveAspectRatio="none" overflow="visible" style="display: block;" width="22" height="22" viewBox="0 0 22 22" fill="none" xmlns="http://www.w3.org/2000/svg">
<g id="Workflow">
<path id="Vector" d="M7.33333 2.75H3.66667C3.16041 2.75 2.75 3.16041 2.75 3.66667V7.33333C2.75 7.83959 3.16041 8.25 3.66667 8.25H7.33333C7.83959 8.25 8.25 7.83959 8.25 7.33333V3.66667C8.25 3.16041 7.83959 2.75 7.33333 2.75Z" stroke="#EF4444" stroke-width="1.65"/>
<path id="Vector_2" d="M18.3333 2.75H14.6667C14.1604 2.75 13.75 3.16041 13.75 3.66667V7.33333C13.75 7.83959 14.1604 8.25 14.6667 8.25H18.3333C18.8396 8.25 19.25 7.83959 19.25 7.33333V3.66667C19.25 3.16041 18.8396 2.75 18.3333 2.75Z" stroke="#EF4444" stroke-width="1.65"/>
<path id="Vector_3" d="M12.8333 13.75H9.16667C8.66041 13.75 8.25 14.1604 8.25 14.6667V18.3333C8.25 18.8396 8.66041 19.25 9.16667 19.25H12.8333C13.3396 19.25 13.75 18.8396 13.75 18.3333V14.6667C13.75 14.1604 13.3396 13.75 12.8333 13.75Z" stroke="#EF4444" stroke-width="1.65"/>
<path id="Vector_4" d="M5.5 8.25V11C5.5 11.7293 5.78973 12.4288 6.30546 12.9445C6.82118 13.4603 7.52065 13.75 8.25 13.75H11H13.75C14.4793 13.75 15.1788 13.4603 15.6945 12.9445C16.2103 12.4288 16.5 11.7293 16.5 11V8.25" stroke="#EF4444" stroke-width="1.65" stroke-linecap="round"/>
</g>
</svg>
